<?xml version="1.0" encoding="UTF-8" standalone="no"?>
<!DOCTYPE svg PUBLIC "-//W3C//DTD SVG 1.1//EN"
 "http://www.w3.org/Graphics/SVG/1.1/DTD/svg11.dtd">
<!-- Generated by graphviz version 2.44.0 (20200518.1210)
 -->
<!-- Title: Linux_kernel_diagram Pages: 1 -->
<svg width="1460pt" height="806pt"
 viewBox="0.00 0.00 1460.45 805.80" xmlns="http://www.w3.org/2000/svg" xmlns:xlink="http://www.w3.org/1999/xlink">
<g id="graph0" class="graph" transform="scale(1 1) rotate(0) translate(4 801.8)">
<title>Linux_kernel_diagram</title>
<polygon fill="white" stroke="transparent" points="-4,4 -4,-801.8 1456.45,-801.8 1456.45,4 -4,4"/>
<!-- system_ -->
<!-- SCI -->
<g id="node3" class="node">
<title>SCI</title>
<g id="a_node3"><a xlink:href="https://en.wikibooks.org/wiki/The_Linux_Kernel/Syscalls" xlink:title="System calls">
<ellipse fill="#d9e7ee" stroke="#e27dd6" stroke-width="5" cx="491" cy="-592" rx="79" ry="36"/>
<text text-anchor="middle" x="491" y="-584.8" font-family="Helvetica,Arial,sans-serif" font-size="24.00">System calls</text>
</a>
</g>
</g>
<!-- system_&#45;&gt;SCI -->
<!-- system -->
<g id="node2" class="node">
<title>system</title>
<g id="a_node2"><a xlink:href="https://en.wikibooks.org/wiki/The_Linux_Kernel/System" xlink:title="system">
<polygon fill="white" stroke="#e27dd6" stroke-width="5" points="563,-735.8 419,-735.8 419,-692.8 563,-692.8 563,-735.8"/>
<text text-anchor="middle" x="491" y="-707.1" font-family="Helvetica,Arial,sans-serif" font-size="24.00">system</text>
</a>
</g>
</g>
<!-- system&#45;&gt;system_ -->
<g id="edge1" class="edge">
<title>system&#45;&gt;system_</title>
<path fill="none" stroke="#e27dd6" stroke-width="5" d="M491,-692.79C491,-683.35 491,-672.9 491,-666.75"/>
<polygon fill="#e27dd6" stroke="#e27dd6" stroke-width="5" points="493.19,-666.45 491,-661.45 488.81,-666.45 493.19,-666.45"/>
</g>
<!-- processing -->
<g id="node18" class="node">
<title>processing</title>
<g id="a_node18"><a xlink:href="https://en.wikibooks.org/wiki/The_Linux_Kernel/Processing" xlink:title="processing">
<polygon fill="white" stroke="#c46747" stroke-width="5" points="743,-735.8 599,-735.8 599,-692.8 743,-692.8 743,-735.8"/>
<text text-anchor="middle" x="671" y="-707.1" font-family="Helvetica,Arial,sans-serif" font-size="24.00">processing</text>
</a>
</g>
</g>
<!-- system&#45;&gt;processing -->
<!-- sysfs -->
<g id="node4" class="node">
<title>sysfs</title>
<polygon fill="#b2d3e4" stroke="#e27dd6" stroke-width="5" points="570,-542 412,-542 412,-470 570,-470 570,-542"/>
<text text-anchor="middle" x="491" y="-513.2" font-family="Helvetica,Arial,sans-serif" font-size="24.00">proc &amp; sysfs</text>
<text text-anchor="middle" x="491" y="-484.4" font-family="Helvetica,Arial,sans-serif" font-size="24.00">file systems</text>
</g>
<!-- SCI&#45;&gt;sysfs -->
<g id="edge2" class="edge">
<title>SCI&#45;&gt;sysfs</title>
<path fill="none" stroke="#e27dd6" stroke-width="5" d="M491,-555.86C491,-551.37 491,-546.76 491,-542.27"/>
</g>
<!-- DM -->
<g id="node5" class="node">
<title>DM</title>
<polygon fill="#91b5c9" stroke="#e27dd6" stroke-width="5" points="563,-407.99 563,-432.01 520.82,-449 461.18,-449 419,-432.01 419,-407.99 461.18,-391 520.82,-391 563,-407.99"/>
<text text-anchor="middle" x="491" y="-426" font-family="Helvetica,Arial,sans-serif" font-size="20.00">Device</text>
<text text-anchor="middle" x="491" y="-402" font-family="Helvetica,Arial,sans-serif" font-size="20.00">Model</text>
</g>
<!-- sysfs&#45;&gt;DM -->
<g id="edge3" class="edge">
<title>sysfs&#45;&gt;DM</title>
<path fill="none" stroke="#e27dd6" stroke-width="5" d="M491,-469.86C491,-462.94 491,-455.76 491,-449.11"/>
</g>
<!-- log_sys -->
<g id="node6" class="node">
<title>log_sys</title>
<polygon fill="#6a9ab1" stroke="#e27dd6" stroke-width="5" points="570,-370 412,-370 412,-266 570,-266 570,-370"/>
<text text-anchor="middle" x="491" y="-348" font-family="Helvetica,Arial,sans-serif" font-size="20.00">system run,</text>
<text text-anchor="middle" x="491" y="-324" font-family="Helvetica,Arial,sans-serif" font-size="20.00">modules,</text>
<text text-anchor="middle" x="491" y="-300" font-family="Helvetica,Arial,sans-serif" font-size="20.00">generic</text>
<text text-anchor="middle" x="491" y="-276" font-family="Helvetica,Arial,sans-serif" font-size="20.00">HW access </text>
</g>
<!-- DM&#45;&gt;log_sys -->
<g id="edge4" class="edge">
<title>DM&#45;&gt;log_sys</title>
<path fill="none" stroke="#e27dd6" stroke-width="5" d="M491,-390.88C491,-384.41 491,-377.33 491,-370.22"/>
</g>
<!-- bus_drv -->
<g id="node7" class="node">
<title>bus_drv</title>
<polygon fill="#71809b" stroke="#e27dd6" stroke-width="5" points="570,-248 412,-248 412,-176 570,-176 570,-248"/>
<text text-anchor="middle" x="491" y="-204.8" font-family="Helvetica,Arial,sans-serif" font-size="24.00">bus drivers</text>
</g>
<!-- log_sys&#45;&gt;bus_drv -->
<g id="edge5" class="edge">
<title>log_sys&#45;&gt;bus_drv</title>
<path fill="none" stroke="#e27dd6" stroke-width="5" d="M491,-265.91C491,-259.85 491,-253.77 491,-248.01"/>
</g>
<!-- buses -->
<g id="node8" class="node">
<title>buses</title>
<polygon fill="#777777" stroke="#e27dd6" stroke-width="5" points="570,-158 412,-158 412,-86 570,-86 570,-158"/>
<text text-anchor="middle" x="491" y="-128" font-family="Helvetica,Arial,sans-serif" font-size="20.00" fill="white">buses:</text>
<text text-anchor="middle" x="491" y="-104" font-family="Helvetica,Arial,sans-serif" font-size="20.00" fill="white">PCI, USB ...</text>
</g>
<!-- bus_drv&#45;&gt;buses -->
<g id="edge6" class="edge">
<title>bus_drv&#45;&gt;buses</title>
<path fill="none" stroke="#e27dd6" stroke-width="5" d="M491,-175.97C491,-170.12 491,-164.05 491,-158.2"/>
</g>
<!-- networking_ -->
<!-- sock -->
<g id="node11" class="node">
<title>sock</title>
<ellipse fill="#d9e7ee" stroke="#61c2c5" stroke-width="5" cx="1370" cy="-592" rx="79" ry="36"/>
<text text-anchor="middle" x="1370" y="-584.8" font-family="Helvetica,Arial,sans-serif" font-size="24.00">Sockets</text>
</g>
<!-- networking_&#45;&gt;sock -->
<!-- networking -->
<g id="node10" class="node">
<title>networking</title>
<g id="a_node10"><a xlink:href="https://en.wikibooks.org/wiki/The_Linux_Kernel/Networking" xlink:title="networking">
<polygon fill="white" stroke="#61c2c5" stroke-width="5" points="1442,-735.8 1298,-735.8 1298,-692.8 1442,-692.8 1442,-735.8"/>
<text text-anchor="middle" x="1370" y="-707.1" font-family="Helvetica,Arial,sans-serif" font-size="24.00">networking</text>
</a>
</g>
</g>
<!-- networking&#45;&gt;networking_ -->
<g id="edge7" class="edge">
<title>networking&#45;&gt;networking_</title>
<path fill="none" stroke="#61c2c5" stroke-width="5" d="M1370,-692.79C1370,-683.35 1370,-672.9 1370,-666.75"/>
<polygon fill="#61c2c5" stroke="#61c2c5" stroke-width="5" points="1372.19,-666.45 1370,-661.45 1367.81,-666.45 1372.19,-666.45"/>
</g>
<!-- prot_fam -->
<g id="node12" class="node">
<title>prot_fam</title>
<polygon fill="#b2d3e4" stroke="#61c2c5" stroke-width="5" points="1449,-542 1291,-542 1291,-470 1449,-470 1449,-542"/>
<text text-anchor="middle" x="1370" y="-513.2" font-family="Helvetica,Arial,sans-serif" font-size="24.00">protocol</text>
<text text-anchor="middle" x="1370" y="-484.4" font-family="Helvetica,Arial,sans-serif" font-size="24.00">families</text>
</g>
<!-- sock&#45;&gt;prot_fam -->
<g id="edge8" class="edge">
<title>sock&#45;&gt;prot_fam</title>
<path fill="none" stroke="#61c2c5" stroke-width="5" d="M1370,-555.86C1370,-551.37 1370,-546.76 1370,-542.27"/>
</g>
<!-- log_prot -->
<g id="node13" class="node">
<title>log_prot</title>
<polygon fill="#6a9ab1" stroke="#61c2c5" stroke-width="5" points="1452,-354 1288,-354 1288,-282 1452,-282 1452,-354"/>
<text text-anchor="middle" x="1370" y="-325.2" font-family="Helvetica,Arial,sans-serif" font-size="24.00">protocols:</text>
<text text-anchor="middle" x="1370" y="-296.4" font-family="Helvetica,Arial,sans-serif" font-size="24.00">TCP, UDP, IP</text>
</g>
<!-- prot_fam&#45;&gt;log_prot -->
<g id="edge9" class="edge">
<title>prot_fam&#45;&gt;log_prot</title>
<path fill="none" stroke="#61c2c5" stroke-width="5" d="M1370,-469.75C1370,-436.46 1370,-387.39 1370,-354.14"/>
</g>
<!-- netif -->
<g id="node14" class="node">
<title>netif</title>
<polygon fill="#71809b" stroke="#61c2c5" stroke-width="5" points="1449,-252 1291,-252 1291,-172 1449,-172 1449,-252"/>
<text text-anchor="middle" x="1370" y="-230" font-family="Helvetica,Arial,sans-serif" font-size="20.00">network</text>
<text text-anchor="middle" x="1370" y="-206" font-family="Helvetica,Arial,sans-serif" font-size="20.00">interfaces</text>
<text text-anchor="middle" x="1370" y="-182" font-family="Helvetica,Arial,sans-serif" font-size="20.00">and drivers</text>
</g>
<!-- log_prot&#45;&gt;netif -->
<g id="edge10" class="edge">
<title>log_prot&#45;&gt;netif</title>
<path fill="none" stroke="#61c2c5" stroke-width="5" d="M1370,-281.79C1370,-272.24 1370,-261.85 1370,-252.1"/>
</g>
<!-- net_hw -->
<g id="node15" class="node">
<title>net_hw</title>
<polygon fill="#777777" stroke="#61c2c5" stroke-width="5" points="1452.4,-158 1287.6,-158 1287.6,-86 1452.4,-86 1452.4,-158"/>
<text text-anchor="middle" x="1370" y="-128" font-family="Helvetica,Arial,sans-serif" font-size="20.00" fill="white">network:</text>
<text text-anchor="middle" x="1370" y="-104" font-family="Helvetica,Arial,sans-serif" font-size="20.00" fill="white">Ethernet, WiFi ...</text>
</g>
<!-- netif&#45;&gt;net_hw -->
<g id="edge11" class="edge">
<title>netif&#45;&gt;net_hw</title>
<path fill="none" stroke="#61c2c5" stroke-width="5" d="M1370,-171.89C1370,-167.3 1370,-162.64 1370,-158.11"/>
</g>
<!-- NFS -->
<g id="node16" class="node">
<title>NFS</title>
<polygon fill="#91b5c9" stroke="#8383cc" stroke-width="5" points="1321,-407.99 1321,-432.01 1295.81,-449 1260.19,-449 1235,-432.01 1235,-407.99 1260.19,-391 1295.81,-391 1321,-407.99"/>
<text text-anchor="middle" x="1278" y="-412.8" font-family="Helvetica,Arial,sans-serif" font-size="24.00">NFS</text>
</g>
<!-- NFS&#45;&gt;log_prot -->
<g id="edge12" class="edge">
<title>NFS&#45;&gt;log_prot</title>
<path fill="none" stroke="#61c2c5" stroke-width="5" d="M1300.74,-394.28C1311.81,-382.25 1325.31,-367.57 1337.45,-354.38"/>
</g>
<!-- processing_ -->
<!-- proc -->
<g id="node19" class="node">
<title>proc</title>
<ellipse fill="#d9e7ee" stroke="#c46747" stroke-width="5" cx="671" cy="-592" rx="79" ry="36"/>
<text text-anchor="middle" x="671" y="-584.8" font-family="Helvetica,Arial,sans-serif" font-size="24.00">Processes</text>
</g>
<!-- processing_&#45;&gt;proc -->
<!-- processing&#45;&gt;processing_ -->
<g id="edge13" class="edge">
<title>processing&#45;&gt;processing_</title>
<path fill="none" stroke="#c46747" stroke-width="5" d="M671,-692.79C671,-683.35 671,-672.9 671,-666.75"/>
<polygon fill="#c46747" stroke="#c46747" stroke-width="5" points="673.19,-666.45 671,-661.45 668.81,-666.45 673.19,-666.45"/>
</g>
<!-- memory -->
<g id="node34" class="node">
<title>memory</title>
<g id="a_node34"><a xlink:href="https://en.wikibooks.org/wiki/The_Linux_Kernel/Memory" xlink:title="memory">
<polygon fill="white" stroke="#51bf5b" stroke-width="5" points="923,-735.8 779,-735.8 779,-692.8 923,-692.8 923,-735.8"/>
<text text-anchor="middle" x="851" y="-707.1" font-family="Helvetica,Arial,sans-serif" font-size="24.00">memory</text>
</a>
</g>
</g>
<!-- processing&#45;&gt;memory -->
<!-- Tasks -->
<g id="node20" class="node">
<title>Tasks</title>
<polygon fill="#b2d3e4" stroke="#c46747" stroke-width="5" points="750,-542 592,-542 592,-470 750,-470 750,-542"/>
<text text-anchor="middle" x="671" y="-498.8" font-family="Helvetica,Arial,sans-serif" font-size="24.00">Tasks</text>
</g>
<!-- proc&#45;&gt;Tasks -->
<g id="edge14" class="edge">
<title>proc&#45;&gt;Tasks</title>
<path fill="none" stroke="#c46747" stroke-width="5" d="M671,-555.86C671,-551.37 671,-546.76 671,-542.27"/>
</g>
<!-- sync -->
<g id="node21" class="node">
<title>sync</title>
<polygon fill="#91b5c9" stroke="#c46747" stroke-width="5" points="750,-409.64 750,-430.36 703.72,-445 638.28,-445 592,-430.36 592,-409.64 638.28,-395 703.72,-395 750,-409.64"/>
<text text-anchor="middle" x="671" y="-414" font-family="Arial Narrow" font-size="20.00">synchronization</text>
</g>
<!-- Tasks&#45;&gt;sync -->
<g id="edge15" class="edge">
<title>Tasks&#45;&gt;sync</title>
<path fill="none" stroke="#c46747" stroke-width="5" d="M671,-469.86C671,-461.59 671,-452.95 671,-445.28"/>
</g>
<!-- sched -->
<g id="node22" class="node">
<title>sched</title>
<polygon fill="#6a9ab1" stroke="#c46747" stroke-width="5" points="750,-354 592,-354 592,-282 750,-282 750,-354"/>
<text text-anchor="middle" x="671" y="-310.8" font-family="Helvetica,Arial,sans-serif" font-size="24.00">Scheduler</text>
</g>
<!-- sync&#45;&gt;sched -->
<g id="edge16" class="edge">
<title>sync&#45;&gt;sched</title>
<path fill="none" stroke="#c46747" stroke-width="5" d="M671,-394.79C671,-382.65 671,-367.72 671,-354.33"/>
</g>
<!-- IRQ -->
<g id="node23" class="node">
<title>IRQ</title>
<polygon fill="#71809b" stroke="#c46747" stroke-width="5" points="750,-252 592,-252 592,-172 750,-172 750,-252"/>
<text text-anchor="middle" x="671" y="-230" font-family="Helvetica,Arial,sans-serif" font-size="20.00">interrupts</text>
<text text-anchor="middle" x="671" y="-206" font-family="Helvetica,Arial,sans-serif" font-size="20.00">core,</text>
<text text-anchor="middle" x="671" y="-182" font-family="Helvetica,Arial,sans-serif" font-size="20.00">CPU arch</text>
</g>
<!-- sched&#45;&gt;IRQ -->
<g id="edge17" class="edge">
<title>sched&#45;&gt;IRQ</title>
<path fill="none" stroke="#c46747" stroke-width="5" d="M671,-281.79C671,-272.24 671,-261.85 671,-252.1"/>
</g>
<!-- CPU -->
<g id="node24" class="node">
<title>CPU</title>
<polygon fill="#777777" stroke="#c46747" stroke-width="5" points="750,-158 592,-158 592,-86 750,-86 750,-158"/>
<text text-anchor="middle" x="671" y="-116" font-family="Helvetica,Arial,sans-serif" font-size="20.00" fill="white">CPU</text>
</g>
<!-- IRQ&#45;&gt;CPU -->
<g id="edge18" class="edge">
<title>IRQ&#45;&gt;CPU</title>
<path fill="none" stroke="#c46747" stroke-width="5" d="M671,-171.89C671,-167.3 671,-162.64 671,-158.11"/>
</g>
<!-- bottom -->
<g id="node63" class="node">
<title>bottom</title>
<g id="a_node63"><a xlink:href="http://www.MakeLinux.net/kernel/diagram" xlink:title="© 2007&#45;2022 Costa Shulyupin http://www.MakeLinux.net/kernel/diagram">
<text text-anchor="middle" x="671" y="-28.8" font-family="Helvetica,Arial,sans-serif" font-size="24.00">© 2007&#45;2022 Costa Shulyupin http://www.MakeLinux.net/kernel/diagram</text>
</a>
</g>
</g>
<!-- CPU&#45;&gt;bottom -->
<!-- MA -->
<g id="node25" class="node">
<title>MA</title>
<ellipse fill="#d9e7ee" stroke="#51bf5b" stroke-width="5" cx="851" cy="-592" rx="79" ry="36"/>
<text text-anchor="middle" x="851" y="-599.2" font-family="Helvetica,Arial,sans-serif" font-size="24.00">memory</text>
<text text-anchor="middle" x="851" y="-570.4" font-family="Helvetica,Arial,sans-serif" font-size="24.00">access</text>
</g>
<!-- VM -->
<g id="node26" class="node">
<title>VM</title>
<polygon fill="#b2d3e4" stroke="#51bf5b" stroke-width="5" points="930,-542 772,-542 772,-470 930,-470 930,-542"/>
<text text-anchor="middle" x="851" y="-513.2" font-family="Helvetica,Arial,sans-serif" font-size="24.00">Virtual</text>
<text text-anchor="middle" x="851" y="-484.4" font-family="Helvetica,Arial,sans-serif" font-size="24.00">memory</text>
</g>
<!-- MA&#45;&gt;VM -->
<g id="edge19" class="edge">
<title>MA&#45;&gt;VM</title>
<path fill="none" stroke="#51bf5b" stroke-width="5" d="M851,-555.86C851,-551.37 851,-546.76 851,-542.27"/>
</g>
<!-- mmap -->
<g id="node27" class="node">
<title>mmap</title>
<polygon fill="#91b5c9" stroke="#51bf5b" stroke-width="5" points="923,-407.99 923,-432.01 880.82,-449 821.18,-449 779,-432.01 779,-407.99 821.18,-391 880.82,-391 923,-407.99"/>
<text text-anchor="middle" x="851" y="-426" font-family="Helvetica,Arial,sans-serif" font-size="20.00">memory</text>
<text text-anchor="middle" x="851" y="-402" font-family="Helvetica,Arial,sans-serif" font-size="20.00">mapping</text>
</g>
<!-- VM&#45;&gt;mmap -->
<g id="edge27" class="edge">
<title>VM&#45;&gt;mmap</title>
<path fill="none" stroke="#51bf5b" stroke-width="5" d="M851,-469.86C851,-462.94 851,-455.76 851,-449.11"/>
</g>
<!-- log_mem -->
<g id="node28" class="node">
<title>log_mem</title>
<polygon fill="#6a9ab1" stroke="#51bf5b" stroke-width="5" points="930,-354 772,-354 772,-282 930,-282 930,-354"/>
<text text-anchor="middle" x="851" y="-325.2" font-family="Helvetica,Arial,sans-serif" font-size="24.00">logical</text>
<text text-anchor="middle" x="851" y="-296.4" font-family="Helvetica,Arial,sans-serif" font-size="24.00">memory</text>
</g>
<!-- mmap&#45;&gt;log_mem -->
<g id="edge20" class="edge">
<title>mmap&#45;&gt;log_mem</title>
<path fill="none" stroke="#51bf5b" stroke-width="5" d="M851,-390.88C851,-379.44 851,-366.1 851,-354.04"/>
</g>
<!-- SW -->
<g id="node30" class="node">
<title>SW</title>
<polygon fill="#91b5c9" stroke="#8383cc" stroke-width="5" points="1038,-305.99 1038,-330.01 1012.81,-347 977.19,-347 952,-330.01 952,-305.99 977.19,-289 1012.81,-289 1038,-305.99"/>
<text text-anchor="middle" x="995" y="-310.8" font-family="Helvetica,Arial,sans-serif" font-size="24.00">Swap</text>
</g>
<!-- mmap&#45;&gt;SW -->
<g id="edge22" class="edge">
<title>mmap&#45;&gt;SW</title>
<path fill="none" stroke="#51bf5b" stroke-width="5" d="M887.71,-393.51C911.87,-376.73 943.09,-355.05 965.61,-339.41"/>
</g>
<!-- PA -->
<g id="node29" class="node">
<title>PA</title>
<polygon fill="#71809b" stroke="#51bf5b" stroke-width="5" points="930,-248 772,-248 772,-176 930,-176 930,-248"/>
<text text-anchor="middle" x="851" y="-219.2" font-family="Helvetica,Arial,sans-serif" font-size="24.00">Page</text>
<text text-anchor="middle" x="851" y="-190.4" font-family="Helvetica,Arial,sans-serif" font-size="24.00">Allocator</text>
</g>
<!-- log_mem&#45;&gt;PA -->
<g id="edge21" class="edge">
<title>log_mem&#45;&gt;PA</title>
<path fill="none" stroke="#51bf5b" stroke-width="5" d="M851,-281.79C851,-270.95 851,-259.01 851,-248.17"/>
</g>
<!-- RAM -->
<g id="node33" class="node">
<title>RAM</title>
<polygon fill="#777777" stroke="#51bf5b" stroke-width="5" points="930,-158 772,-158 772,-86 930,-86 930,-158"/>
<text text-anchor="middle" x="851" y="-116" font-family="Helvetica,Arial,sans-serif" font-size="20.00" fill="white">MMU, RAM</text>
</g>
<!-- PA&#45;&gt;RAM -->
<g id="edge25" class="edge">
<title>PA&#45;&gt;RAM</title>
<path fill="none" stroke="#51bf5b" stroke-width="5" d="M851,-175.97C851,-170.12 851,-164.05 851,-158.2"/>
</g>
<!-- block -->
<g id="node31" class="node">
<title>block</title>
<polygon fill="#71809b" stroke="#51bf5b" stroke-width="5" points="1264,-252 1106,-252 1106,-172 1264,-172 1264,-252"/>
<text text-anchor="middle" x="1185" y="-230" font-family="Helvetica,Arial,sans-serif" font-size="20.00">Block</text>
<text text-anchor="middle" x="1185" y="-206" font-family="Helvetica,Arial,sans-serif" font-size="20.00">devices</text>
<text text-anchor="middle" x="1185" y="-182" font-family="Helvetica,Arial,sans-serif" font-size="20.00">and drivers</text>
</g>
<!-- SW&#45;&gt;block -->
<g id="edge23" class="edge">
<title>SW&#45;&gt;block</title>
<path fill="none" stroke="#8383cc" stroke-width="5" d="M1028.1,-298.88C1051.7,-285.96 1084.33,-268.1 1113.73,-252.01"/>
</g>
<!-- SD -->
<g id="node41" class="node">
<title>SD</title>
<polygon fill="#777777" stroke="#8383cc" stroke-width="5" points="1265.6,-158 1104.4,-158 1104.4,-86 1265.6,-86 1265.6,-158"/>
<text text-anchor="middle" x="1185" y="-128" font-family="Helvetica,Arial,sans-serif" font-size="20.00" fill="white">storage devices:</text>
<text text-anchor="middle" x="1185" y="-104" font-family="Helvetica,Arial,sans-serif" font-size="20.00" fill="white">SCSI, NVMe ...</text>
</g>
<!-- block&#45;&gt;SD -->
<g id="edge35" class="edge">
<title>block&#45;&gt;SD</title>
<path fill="none" stroke="#8383cc" stroke-width="5" d="M1185,-171.89C1185,-167.3 1185,-162.64 1185,-158.11"/>
</g>
<!-- PC -->
<g id="node32" class="node">
<title>PC</title>
<polygon fill="#91b5c9" stroke="#51bf5b" stroke-width="5" points="1073,-407.99 1073,-432.01 1047.81,-449 1012.19,-449 987,-432.01 987,-407.99 1012.19,-391 1047.81,-391 1073,-407.99"/>
<text text-anchor="middle" x="1030" y="-426" font-family="Helvetica,Arial,sans-serif" font-size="20.00">page</text>
<text text-anchor="middle" x="1030" y="-402" font-family="Helvetica,Arial,sans-serif" font-size="20.00">cache</text>
</g>
<!-- PC&#45;&gt;PA -->
<g id="edge24" class="edge">
<title>PC&#45;&gt;PA</title>
<path fill="none" stroke="#51bf5b" stroke-width="5" d="M1007.33,-393.66C975.63,-356.82 917.93,-289.77 882.19,-248.25"/>
</g>
<!-- memory_ -->
<!-- memory&#45;&gt;memory_ -->
<g id="edge26" class="edge">
<title>memory&#45;&gt;memory_</title>
<path fill="none" stroke="#51bf5b" stroke-width="5" d="M851,-692.79C851,-683.35 851,-672.9 851,-666.75"/>
<polygon fill="#51bf5b" stroke="#51bf5b" stroke-width="5" points="853.19,-666.45 851,-661.45 848.81,-666.45 853.19,-666.45"/>
</g>
<!-- storage -->
<g id="node37" class="node">
<title>storage</title>
<g id="a_node37"><a xlink:href="https://en.wikibooks.org/wiki/The_Linux_Kernel/Storage" xlink:title="storage">
<polygon fill="white" stroke="#8383cc" stroke-width="5" points="1257,-735.8 1113,-735.8 1113,-692.8 1257,-692.8 1257,-735.8"/>
<text text-anchor="middle" x="1185" y="-707.1" font-family="Helvetica,Arial,sans-serif" font-size="24.00">storage</text>
</a>
</g>
</g>
<!-- memory&#45;&gt;storage -->
<!-- memory_&#45;&gt;MA -->
<!-- storage_ -->
<!-- FS -->
<g id="node38" class="node">
<title>FS</title>
<ellipse fill="#d9e7ee" stroke="#8383cc" stroke-width="5" cx="1185" cy="-592" rx="79" ry="36"/>
<text text-anchor="middle" x="1185" y="-599.2" font-family="Helvetica,Arial,sans-serif" font-size="24.00">files and</text>
<text text-anchor="middle" x="1185" y="-570.4" font-family="Helvetica,Arial,sans-serif" font-size="24.00">directories</text>
</g>
<!-- storage_&#45;&gt;FS -->
<!-- storage&#45;&gt;networking -->
<!-- storage&#45;&gt;storage_ -->
<g id="edge28" class="edge">
<title>storage&#45;&gt;storage_</title>
<path fill="none" stroke="#8383cc" stroke-width="5" d="M1185,-692.79C1185,-683.35 1185,-672.9 1185,-666.75"/>
<polygon fill="#8383cc" stroke="#8383cc" stroke-width="5" points="1187.19,-666.45 1185,-661.45 1182.81,-666.45 1187.19,-666.45"/>
</g>
<!-- VFS -->
<g id="node39" class="node">
<title>VFS</title>
<polygon fill="#b2d3e4" stroke="#8383cc" stroke-width="5" points="1264,-542 1106,-542 1106,-470 1264,-470 1264,-542"/>
<text text-anchor="middle" x="1185" y="-513.2" font-family="Helvetica,Arial,sans-serif" font-size="24.00">Virtual</text>
<text text-anchor="middle" x="1185" y="-484.4" font-family="Helvetica,Arial,sans-serif" font-size="24.00">File System</text>
</g>
<!-- FS&#45;&gt;VFS -->
<g id="edge29" class="edge">
<title>FS&#45;&gt;VFS</title>
<path fill="none" stroke="#8383cc" stroke-width="5" d="M1185,-555.86C1185,-551.37 1185,-546.76 1185,-542.27"/>
</g>
<!-- VFS&#45;&gt;NFS -->
<g id="edge31" class="edge">
<title>VFS&#45;&gt;NFS</title>
<path fill="none" stroke="#8383cc" stroke-width="5" d="M1223.9,-469.86C1233.56,-461.14 1243.66,-452.01 1252.49,-444.04"/>
</g>
<!-- VFS&#45;&gt;mmap -->
<g id="edge30" class="edge">
<title>VFS&#45;&gt;mmap</title>
<path fill="none" stroke="#8383cc" stroke-width="5" d="M1105.85,-485.09C1046.62,-470.2 966.8,-450.12 912.37,-436.43"/>
</g>
<!-- VFS&#45;&gt;PC -->
<g id="edge33" class="edge">
<title>VFS&#45;&gt;PC</title>
<path fill="none" stroke="#8383cc" stroke-width="5" d="M1120.16,-469.86C1100.59,-459.25 1079.9,-448.04 1063.29,-439.04"/>
</g>
<!-- logFS -->
<g id="node40" class="node">
<title>logFS</title>
<polygon fill="#6a9ab1" stroke="#8383cc" stroke-width="5" points="1264,-358 1106,-358 1106,-278 1264,-278 1264,-358"/>
<text text-anchor="middle" x="1185" y="-336" font-family="Helvetica,Arial,sans-serif" font-size="20.00">logical</text>
<text text-anchor="middle" x="1185" y="-312" font-family="Helvetica,Arial,sans-serif" font-size="20.00">filesystems:</text>
<text text-anchor="middle" x="1185" y="-288" font-family="Helvetica,Arial,sans-serif" font-size="20.00">ext3, xfs ...</text>
</g>
<!-- VFS&#45;&gt;logFS -->
<g id="edge32" class="edge">
<title>VFS&#45;&gt;logFS</title>
<path fill="none" stroke="#8383cc" stroke-width="5" d="M1185,-469.75C1185,-437.74 1185,-391.14 1185,-358.04"/>
</g>
<!-- logFS&#45;&gt;block -->
<g id="edge34" class="edge">
<title>logFS&#45;&gt;block</title>
<path fill="none" stroke="#8383cc" stroke-width="5" d="M1185,-277.98C1185,-269.56 1185,-260.66 1185,-252.24"/>
</g>
<!-- HI_ -->
<!-- char -->
<g id="node44" class="node">
<title>char</title>
<ellipse fill="#d9e7ee" stroke="#cfbf57" stroke-width="5" cx="307" cy="-592" rx="79" ry="36"/>
<text text-anchor="middle" x="307" y="-599.2" font-family="Helvetica,Arial,sans-serif" font-size="24.00">char</text>
<text text-anchor="middle" x="307" y="-570.4" font-family="Helvetica,Arial,sans-serif" font-size="24.00">devices</text>
</g>
<!-- HI_&#45;&gt;char -->
<!-- HI -->
<g id="node43" class="node">
<title>HI</title>
<g id="a_node43"><a xlink:href="https://en.wikibooks.org/wiki/The_Linux_Kernel/Human_interfaces" xlink:title="human\ninterface">
<polygon fill="white" stroke="#cfbf57" stroke-width="5" points="379,-735.8 235,-735.8 235,-692.8 379,-692.8 379,-735.8"/>
<text text-anchor="middle" x="307" y="-717.9" font-family="Helvetica,Arial,sans-serif" font-size="12.00">human</text>
<text text-anchor="middle" x="307" y="-703.5" font-family="Helvetica,Arial,sans-serif" font-size="12.00">interface</text>
</a>
</g>
</g>
<!-- HI&#45;&gt;system -->
<!-- HI&#45;&gt;HI_ -->
<g id="edge36" class="edge">
<title>HI&#45;&gt;HI_</title>
<path fill="none" stroke="#cfbf57" stroke-width="5" d="M307,-692.79C307,-683.35 307,-672.9 307,-666.75"/>
<polygon fill="#cfbf57" stroke="#cfbf57" stroke-width="5" points="309.19,-666.45 307,-661.45 304.81,-666.45 309.19,-666.45"/>
</g>
<!-- input -->
<g id="node45" class="node">
<title>input</title>
<polygon fill="#b2d3e4" stroke="#cfbf57" stroke-width="5" points="386,-542 228,-542 228,-470 386,-470 386,-542"/>
<text text-anchor="middle" x="307" y="-513.2" font-family="Helvetica,Arial,sans-serif" font-size="24.00">input</text>
<text text-anchor="middle" x="307" y="-484.4" font-family="Helvetica,Arial,sans-serif" font-size="24.00">subsystem</text>
</g>
<!-- char&#45;&gt;input -->
<g id="edge37" class="edge">
<title>char&#45;&gt;input</title>
<path fill="none" stroke="#cfbf57" stroke-width="5" d="M307,-555.86C307,-551.37 307,-546.76 307,-542.27"/>
</g>
<!-- F7 -->
<g id="node46" class="node">
<title>F7</title>
<polygon fill="#6a9ab1" stroke="#cfbf57" stroke-width="5" points="386,-354 228,-354 228,-282 386,-282 386,-354"/>
<text text-anchor="middle" x="307" y="-325.2" font-family="Helvetica,Arial,sans-serif" font-size="24.00">HI class</text>
<text text-anchor="middle" x="307" y="-296.4" font-family="Helvetica,Arial,sans-serif" font-size="24.00">drivers</text>
</g>
<!-- input&#45;&gt;F7 -->
<g id="edge38" class="edge">
<title>input&#45;&gt;F7</title>
<path fill="none" stroke="#cfbf57" stroke-width="5" d="M307,-469.75C307,-436.46 307,-387.39 307,-354.14"/>
</g>
<!-- HID -->
<g id="node47" class="node">
<title>HID</title>
<g id="a_node47"><a xlink:href="https://www.kernel.org/doc/html/latest/hid/" xlink:title="HI\nperipherals\ndrivers">
<polygon fill="#71809b" stroke="#cfbf57" stroke-width="5" points="386,-252 228,-252 228,-172 386,-172 386,-252"/>
<text text-anchor="middle" x="307" y="-230" font-family="Helvetica,Arial,sans-serif" font-size="20.00">HI</text>
<text text-anchor="middle" x="307" y="-206" font-family="Helvetica,Arial,sans-serif" font-size="20.00">peripherals</text>
<text text-anchor="middle" x="307" y="-182" font-family="Helvetica,Arial,sans-serif" font-size="20.00">drivers</text>
</a>
</g>
</g>
<!-- F7&#45;&gt;HID -->
<g id="edge39" class="edge">
<title>F7&#45;&gt;HID</title>
<path fill="none" stroke="#cfbf57" stroke-width="5" d="M307,-281.79C307,-272.24 307,-261.85 307,-252.1"/>
</g>
<!-- display -->
<g id="node48" class="node">
<title>display</title>
<polygon fill="#777777" stroke="#cfbf57" stroke-width="5" points="390.49,-158 223.51,-158 223.51,-86 390.49,-86 390.49,-158"/>
<text text-anchor="middle" x="307" y="-127.7" font-family="Helvetica,Arial,sans-serif" font-size="19.00" fill="white">keyboard, mouse,</text>
<text text-anchor="middle" x="307" y="-104.9" font-family="Helvetica,Arial,sans-serif" font-size="19.00" fill="white">display, audio</text>
</g>
<!-- HID&#45;&gt;display -->
<g id="edge40" class="edge">
<title>HID&#45;&gt;display</title>
<path fill="none" stroke="#cfbf57" stroke-width="5" d="M307,-171.89C307,-167.3 307,-162.64 307,-158.11"/>
</g>
<!-- functions_ -->
<!-- functions_&#45;&gt;HI -->
<!-- functions -->
<g id="node50" class="node">
<title>functions</title>
<g id="a_node50"><a xlink:href="http://www.makelinux.net/ldd3/chp-1-sect-2.shtml" xlink:title="Columns represent main functionalities of the kernel">
<polygon fill="none" stroke="gray" stroke-dasharray="5,2" points="136.5,-735.8 21.5,-735.8 21.5,-692.8 136.5,-692.8 136.5,-735.8"/>
<text text-anchor="middle" x="79" y="-707.1" font-family="Helvetica,Arial,sans-serif" font-size="24.00">functions</text>
</a>
</g>
</g>
<!-- functions&#45;&gt;functions_ -->
<g id="edge47" class="edge">
<title>functions&#45;&gt;functions_</title>
<path fill="none" stroke="gray" d="M136.68,-714.3C151.21,-714.3 165.73,-714.3 180.26,-714.3"/>
<polygon fill="gray" stroke="gray" points="180.61,-716.05 185.61,-714.3 180.61,-712.55 180.61,-716.05"/>
</g>
<!-- layers -->
<g id="node64" class="node">
<title>layers</title>
<g id="a_node64"><a xlink:title="Functionalities are divided to common layers. It is approximate division.">
<polygon fill="lightgray" stroke="black" stroke-width="0" points="119,-678.7 39,-678.7 39,-642.1 119,-642.1 119,-678.7"/>
<text text-anchor="middle" x="79" y="-653.2" font-family="Helvetica,Arial,sans-serif" font-size="24.00">layers</text>
</a>
</g>
</g>
<!-- functions&#45;&gt;layers -->
<!-- usr_ -->
<!-- usr -->
<g id="node52" class="node">
<title>usr</title>
<ellipse fill="#d9e7ee" stroke="black" stroke-width="0" cx="79" cy="-592" rx="79" ry="36"/>
<text text-anchor="middle" x="79" y="-599.2" font-family="Helvetica,Arial,sans-serif" font-size="24.00">user space</text>
<text text-anchor="middle" x="79" y="-570.4" font-family="Helvetica,Arial,sans-serif" font-size="24.00">interfaces</text>
</g>
<!-- usr&#45;&gt;usr_ -->
<g id="edge56" class="edge">
<title>usr&#45;&gt;usr_</title>
<path fill="none" stroke="#d9e7ee" stroke-width="5" d="M158.28,-592C171.04,-592 183.81,-592 196.57,-592"/>
<polygon fill="#d9e7ee" stroke="#d9e7ee" stroke-width="5" points="196.66,-594.19 201.66,-592 196.66,-589.81 196.66,-594.19"/>
</g>
<!-- virt -->
<g id="node54" class="node">
<title>virt</title>
<g id="a_node54"><a xlink:href="https://en.wikipedia.org/wiki/Proxy_pattern" xlink:title="proxy between standard user space interfaces and internal implementations">
<polygon fill="#b2d3e4" stroke="black" stroke-width="0" points="158,-542 0,-542 0,-470 158,-470 158,-542"/>
<text text-anchor="middle" x="79" y="-513.2" font-family="Helvetica,Arial,sans-serif" font-size="24.00">virtual</text>
<text text-anchor="middle" x="79" y="-484.4" font-family="Helvetica,Arial,sans-serif" font-size="24.00">subsystems</text>
</a>
</g>
</g>
<!-- usr&#45;&gt;virt -->
<g id="edge57" class="edge">
<title>usr&#45;&gt;virt</title>
<path fill="none" stroke="#d9e7ee" stroke-width="5" d="M79,-555.86C79,-551.37 79,-546.76 79,-542.27"/>
</g>
<!-- D0 -->
<!-- virt&#45;&gt;D0 -->
<g id="edge58" class="edge">
<title>virt&#45;&gt;D0</title>
<path fill="none" stroke="#b2d3e4" stroke-width="5" d="M158.28,-506C171.04,-506 183.81,-506 196.57,-506"/>
<polygon fill="#b2d3e4" stroke="#b2d3e4" stroke-width="5" points="196.66,-508.19 201.66,-506 196.66,-503.81 196.66,-508.19"/>
</g>
<!-- bridges -->
<g id="node55" class="node">
<title>bridges</title>
<g id="a_node55"><a xlink:href="https://en.wikipedia.org/wiki/Bridge_pattern" xlink:title="bridges between uniform virtual interfaces and various implementations">
<polygon fill="#91b5c9" stroke="black" stroke-width="0" points="158,-405.09 158,-434.91 111.72,-456 46.28,-456 0,-434.91 0,-405.09 46.28,-384 111.72,-384 158,-405.09"/>
<text text-anchor="middle" x="79" y="-412.8" font-family="Helvetica,Arial,sans-serif" font-size="24.00">bridges</text>
</a>
</g>
</g>
<!-- virt&#45;&gt;bridges -->
<g id="edge59" class="edge">
<title>virt&#45;&gt;bridges</title>
<path fill="none" stroke="#b2d3e4" stroke-width="5" d="M79,-469.86C79,-465.37 79,-460.76 79,-456.27"/>
</g>
<!-- E0 -->
<!-- bridges&#45;&gt;E0 -->
<g id="edge60" class="edge">
<title>bridges&#45;&gt;E0</title>
<path fill="none" stroke="#91b5c9" stroke-width="6" d="M158.28,-420C171.04,-420 183.81,-420 196.57,-420"/>
<polygon fill="#91b5c9" stroke="#91b5c9" stroke-width="6" points="196.66,-422.63 201.66,-420 196.66,-417.38 196.66,-422.63"/>
</g>
<!-- logical -->
<g id="node58" class="node">
<title>logical</title>
<polygon fill="#6a9ab1" stroke="black" stroke-width="0" points="158,-354 0,-354 0,-282 158,-282 158,-354"/>
<text text-anchor="middle" x="79" y="-310.8" font-family="Helvetica,Arial,sans-serif" font-size="24.00">logical</text>
</g>
<!-- bridges&#45;&gt;logical -->
<g id="edge61" class="edge">
<title>bridges&#45;&gt;logical</title>
<path fill="none" stroke="#91b5c9" stroke-width="6" d="M79,-383.74C79,-374.18 79,-363.84 79,-354.27"/>
</g>
<!-- F0 -->
<!-- logical&#45;&gt;F0 -->
<g id="edge62" class="edge">
<title>logical&#45;&gt;F0</title>
<path fill="none" stroke="#6a9ab1" stroke-width="6" d="M158.28,-318C171.04,-318 183.81,-318 196.57,-318"/>
<polygon fill="#6a9ab1" stroke="#6a9ab1" stroke-width="6" points="196.66,-320.63 201.66,-318 196.66,-315.38 196.66,-320.63"/>
</g>
<!-- HWI -->
<g id="node59" class="node">
<title>HWI</title>
<polygon fill="#71809b" stroke="black" stroke-width="0" points="158,-248 0,-248 0,-176 158,-176 158,-248"/>
<text text-anchor="middle" x="79" y="-219.2" font-family="Helvetica,Arial,sans-serif" font-size="24.00">hardware</text>
<text text-anchor="middle" x="79" y="-190.4" font-family="Helvetica,Arial,sans-serif" font-size="24.00">interfaces</text>
</g>
<!-- logical&#45;&gt;HWI -->
<g id="edge63" class="edge">
<title>logical&#45;&gt;HWI</title>
<path fill="none" stroke="#6a9ab1" stroke-width="6" d="M79,-281.79C79,-270.95 79,-259.01 79,-248.17"/>
</g>
<!-- G0 -->
<!-- HWI&#45;&gt;G0 -->
<g id="edge64" class="edge">
<title>HWI&#45;&gt;G0</title>
<path fill="none" stroke="#71809b" stroke-width="6" d="M158.28,-212C171.04,-212 183.81,-212 196.57,-212"/>
<polygon fill="#71809b" stroke="#71809b" stroke-width="6" points="196.66,-214.63 201.66,-212 196.66,-209.38 196.66,-214.63"/>
</g>
<!-- HW -->
<g id="node61" class="node">
<title>HW</title>
<polygon fill="#777777" stroke="black" stroke-width="0" points="158,-158 0,-158 0,-86 158,-86 158,-158"/>
<text text-anchor="middle" x="79" y="-129.2" font-family="Helvetica,Arial,sans-serif" font-size="24.00" fill="white">electronics,</text>
<text text-anchor="middle" x="79" y="-100.4" font-family="Helvetica,Arial,sans-serif" font-size="24.00" fill="white">hardware</text>
</g>
<!-- HWI&#45;&gt;HW -->
<g id="edge65" class="edge">
<title>HWI&#45;&gt;HW</title>
<path fill="none" stroke="#71809b" stroke-width="6" d="M79,-175.97C79,-170.12 79,-164.05 79,-158.2"/>
</g>
<!-- H0 -->
<!-- HW&#45;&gt;H0 -->
<g id="edge66" class="edge">
<title>HW&#45;&gt;H0</title>
<path fill="none" stroke="#777777" stroke-width="6" d="M158.28,-122C171.04,-122 183.81,-122 196.57,-122"/>
<polygon fill="#777777" stroke="#777777" stroke-width="6" points="196.66,-124.63 201.66,-122 196.66,-119.38 196.66,-124.63"/>
</g>
<!-- layers&#45;&gt;usr -->
<g id="edge67" class="edge">
<title>layers&#45;&gt;usr</title>
<path fill="none" stroke="gray" d="M79,-641.95C79,-639.26 79,-636.4 79,-633.45"/>
<polygon fill="gray" stroke="gray" points="80.75,-633.07 79,-628.07 77.25,-633.07 80.75,-633.07"/>
</g>
<!-- LKD -->
<g id="node65" class="node">
<title>LKD</title>
<text text-anchor="middle" x="671" y="-761.8" font-family="Helvetica,Arial,sans-serif" font-size="40.00">Linux kernel diagram</text>
</g>
<!-- LKD&#45;&gt;processing -->
</g>
</svg>
